<svg width="225" height="225" viewBox="0 0 225 225" xmlns="http://www.w3.org/2000/svg" role="img" aria-label="QwickApps Icon">
  <rect width="225" height="225" rx="48" fill="var(--theme-surface)" />
  <path
    fill="#FE6D0F"
    d="M47.11201171875 5.950634765625 C48.32529496875 5.943537869625 48.32529496875 5.943537869625 49.56308898975 5.9362976036249995 C52.21878426675 5.924481926625 54.87398784675 5.9322617876249994 57.52968749775 5.941406246625 C59.39027803575 5.9395851056249995 61.250867943749995 5.936962748625 63.11145629475 5.933578487625 C67.00600720575 5.929605617625 70.90039050975 5.935357193625 74.79492187275 5.947998044625 C79.76162383875 5.963341469625 84.72793052475001 5.954543321625 89.69461784775001 5.938352393625 C93.53680333874999 5.928543572625 97.37889692175 5.931725711625 101.22108535575 5.9386974356249995 C103.05092745675 5.940486149624999 104.88077817075 5.938332422625 106.71061020075 5.932002641625 C116.17521986475 5.906454404625 125.03337841575001 5.906314571625 134.09999999775 8.999999996625 C134.89889446575 9.260790431625 135.69778894274998 9.521580875625 136.52089233075 9.790274048625 C149.85061125975 14.337699449625 160.93283047875 25.541335373625003 167.39999999775 37.799999996625 C170.81263961775 45.527064845625 172.94668749674997 52.246565267625 172.90217284875 60.707153318625 C172.90230427575 61.366176455624995 172.90243570274998 62.025199583624996 172.90257110775002 62.704193117624996 C172.90194671475 64.871182400625 172.89495622575 67.03810107862499 172.88789062274998 69.205078121625 C172.88621115075 70.712012858625 172.88493044175 72.218948081625 172.88403167475 73.725883484625 C172.88060252175 77.683744985625 172.87176680775 81.641576561625 172.86179809275 85.59942627262501 C172.85257634175 89.64147537562499 172.84847759775 93.683529338625 172.84394531475 97.725585938625 C172.83430553175 105.650404331625 172.81895299875 113.575198433625 172.79999999774998 121.49999999662501 C171.79533622575002 120.643974140625 170.79140007675 119.78709427462499 169.78776855075 118.929858395625 C169.22862309375 118.452775865625 168.66947762775 117.97569332662499 168.09338836575 117.484153745625 C166.09813016175002 115.750901399625 164.19611427975002 113.927543249625 162.28124999775 112.106249996625 C156.33100204875 106.720092833625 149.65590250575002 102.82119961162499 142.19999999775 99.899999996625 C142.19158886775 98.720266109625 142.18317773775 97.540532222625 142.17451171875 96.325048823625 C142.13840198175 91.913370206625 142.07916440475 87.502243316625 142.01323242075 83.090917967625 C141.98795912475 81.188158487625 141.96880911375 79.285306775625 141.95610351675 77.382421871625 C141.93665641575 74.633899037625 141.89458965075 71.88647035162501 141.84843749775 69.138281246625 C141.84677884274998 67.87912650862499 141.84677884274998 67.87912650862499 141.84508667175 66.594534305625 C141.66253589175 58.260876872625 139.23026681175 50.890028045625 133.19999999775 44.99999999662499 C131.15119608675 43.606444190625 129.12192321975 42.531160910625 126.89999999775 41.399999996625 C126.37524229875 41.075908538625 125.85048459075 40.751817080624996 125.30982513375 40.417904660625 C122.45110889175 39.254541089625 119.93044646475 39.356726720625 116.84904784875 39.338525390625 C115.88472008775 39.329457134625 115.88472008775 39.329457134625 114.90091095375 39.320205692625 C112.77984016575 39.303134699625 110.65902578775 39.299592677625 108.53789062275 39.297656246624996 C107.06062668075 39.291870920625 105.58336377375 39.285815387625 104.10610199175 39.279501338624996 C101.01105050174999 39.268729040625 97.91608941675 39.265388330625 94.82102051174999 39.266455073625 C90.85835865375 39.266638061624995 86.89627687275001 39.242053193625 82.93375253475 39.211065104625 C79.88317154775 39.191036549625 76.83273058275 39.187400846625 73.78209056475 39.188352587625 C72.32130627974999 39.186230675625 70.86051822375 39.178280984625 69.39979877475 39.164354321625 C67.35525642675 39.146684504625 65.31197051475 39.151903604625 63.26740722375 39.162744140625 C62.10511647075 39.160179104625 60.94282571775 39.157614077625 59.745314022749994 39.154971317625 C56.19252742875 39.674159789624994 54.719997738749996 40.694113094624996 52.19999999775 43.199999996624996 C51.040411152749996 45.519177686625 51.15596910075 47.233968827625 51.11520996375 49.830908207624994 C51.09725926575 50.839818143625 51.07930855875 51.848728088625 51.06081390075 52.888211060625 C51.038252034749995 54.527933300624994 51.038252034749995 54.527933300624994 51.015234372749994 56.200781246625 C50.99653139175 57.316915004625 50.977828401749996 58.433048762625 50.95855865475 59.583004763625 C50.90960065275 62.551006403624996 50.864399142749996 65.51903447662501 50.82099609375 68.487121580625 C50.77579289175 71.515553783625 50.72572801575 74.543905292625 50.675976564749995 77.572265621625 C50.57870868675 83.514782066625 50.489578221749994 89.457342692625 50.399999997749994 95.399999996625 C40.00499999775 95.399999996625 29.60999999775 95.399999996625 18.899999997749998 95.399999996625 C18.719510361749997 78.241451369625 18.719510361749997 78.241451369625 18.680273439749996 70.885546871625 C18.653449938749993 65.88068777662501 18.621836736749998 60.876201767625 18.560522463749997 55.871630861625 C18.511361286749995 51.833403212625 18.484664406749996 47.795576045625 18.473052408749997 43.757072069624996 C18.464785206749998 42.222092081625 18.448641789749995 40.687132172625 18.424214745749996 39.15232429162499 C18.273955407749998 29.313235400625 18.834160209749996 21.700320467625 25.358203122749998 13.841015621625 C25.99280859375 13.301542967625 26.627414064749996 12.762070313625 27.28124999775 12.206249996625 C27.908894526749997 11.650535159625 28.536539064749995 11.094820313625 29.183203122749998 10.522265621625 C34.99369777574999 6.704444408625 40.33903429575 5.901161045625 47.11201171875 5.950634765625 Z"
  />
  <path
    fill="#03BBCA"
    d="M18.9 95.4 C29.295 95.4 39.69 95.4 50.4 95.4 C50.437124999999995 98.332875 50.47425 101.26575000000001 50.5125 104.28750000000001 C50.824132092 112.87579127400001 51.912701325 118.67796782100001 58.274107361999995 124.819766235 C64.70917678800001 129.809496384 71.419235382 129.394888434 79.175390625 129.22734375000002 C80.556095853 129.217254363 81.93682060200001 129.209576058 83.31755218199999 129.204190062 C86.92671929400001 129.18371143500002 90.534686265 129.130789383 94.143383793 129.07078857 C97.83572357700001 129.01524399000002 101.52826001100001 128.99082066300002 105.22089844199999 128.96367187500002 C112.44781234800001 128.90600478 119.67375629700001 128.814014898 126.9 128.70000000000002 C124.733917512 126.520772886 122.565238623 124.34414733 120.39609375 122.16796875 C119.47975158599999 121.24597082400001 119.47975158599999 121.24597082400001 118.54489745699999 120.305346678 C115.09467669 116.84673631800001 111.59770755599999 113.51849053500001 107.86640625000001 110.36250000000001 C104.44511046600002 107.359843779 101.19442905899999 104.13797208300001 98.1 100.80000000000001 C98.1 100.503 98.1 100.206 98.1 99.9 C118.57957220700001 99.338797557 118.57957220700001 99.338797557 127.80000000000001 102.60000000000001 C128.7466875 102.91672265400001 129.693375 103.233445317 130.66875 103.55976562500001 C151.404640758 110.968934139 167.222161116 125.291503782 176.77749023100003 145.038867192 C180.614960244 153.334127241 183.735170172 161.741816325 183.68789062500002 170.96132812500002 C183.684990231 171.961962894 183.682089846 172.962597654 183.679101558 173.99355469200003 C183.671560548 175.02899414400002 183.664019529 176.06443359600001 183.65625 177.13125000000002 C183.652189452 178.184091798 183.648128904 179.23693359600003 183.643945308 180.32167969200003 C183.63336237000001 182.91450022200002 183.61857083400002 185.50722639600002 183.60000000000002 188.10000000000002 C181.39706903700002 185.920298532 179.223208524 183.73511060100003 177.134765625 181.444921875 C166.945686399 170.514176571 152.670992688 163.01691866700003 137.572114851 162.404696844 C134.412494319 162.34760957400002 131.256059031 162.338968395 128.096064378 162.367573356 C125.505470979 162.390823326 122.91614032499999 162.386014194 120.325479129 162.374867253 C114.82934134500002 162.35636678100002 109.33361064900001 162.373811823 103.8375 162.39375 C97.452916389 162.41285912400002 91.06874799299999 162.416688057 84.684172437 162.393298533 C82.153075788 162.39030905700002 79.62280562699999 162.409242915 77.091806034 162.429661557 C60.767334495 162.45724293900003 47.464764039 158.467164849 35.353125 146.94960937500002 C34.67559375 146.273238279 33.9980625 145.596867192 33.3 144.9 C32.422921875 144.038583981 32.422921875 144.038583981 31.528125 143.159765625 C21.654945801 132.74529370200003 18.400502456999998 119.541918429 18.73125 105.58125000000001 C18.786937499999997 102.22143750000001 18.842624999999998 98.861625 18.9 95.4 Z"
  />
</svg>
